<?xml version="1.0" encoding="UTF-8"?><svg id="Layer_2" xmlns="http://www.w3.org/2000/svg" viewBox="0 0 40.81 40.69"><g id="svg3069"><path d="M28.23.45v5.1c0,.23-.23.57-.45.79h0l-7.48,7.48-4.76,4.76s-.11.11-.34.11-.23,0-.34-.11l-7.37-7.37s-.34-.34-.34-.79v-5.1s0-.11.11-.11h.23l7.71,7.71,2.15-2.15-4.65-4.65c-.23-.23-.34-.45-.34-.79V.23s0-.11.11-.23h.23l7.6,7.6L27.89,0h.11s.23,0,.23.23v.23-.01Z" fill="#fff"/><path d="M18.71,25.62c0,.11,0,.23-.11.34l-7.37,7.37s-.34.34-.79.34h-5.1s-.11,0-.11-.11v-.23l7.71-7.71-2.15-2.15-4.65,4.65h0c-.23.23-.45.34-.79.34H.23s-.11,0-.23-.11v-.23l7.6-7.6L0,12.92v-.11s0-.23.23-.23h5.1c.23,0,.57.23.79.45h0l7.48,7.48h0l4.76,4.76s.11.11.11.34h.23l.01.01Z" fill="#fff"/><path d="M33.44,35.37s0,.11-.11.11h-.23l-7.71-7.71-2.15,2.15h0l4.65,4.65h0c.23.23.34.45.34.79v5.1s0,.11-.11.23h-.23l-7.6-7.6-7.6,7.6h-.11s-.23,0-.23-.23v-5.1c0-.34.23-.57.45-.79h0l7.48-7.48,4.76-4.76s.11-.11.34-.11h0c.11,0,.23,0,.34.11l7.37,7.37s.34.34.34.79v5.1-.23l.01.01Z" fill="#fff"/><path d="M40.59,28.23s0,.23-.23.23h-5.1c-.23,0-.57-.23-.79-.45h0l-7.48-7.48-4.76-4.76s-.11-.11-.11-.34,0-.23.11-.34l7.37-7.37s.34-.34.79-.34h5.1s.11,0,.11.11v.23l-7.71,7.71,2.15,2.15,4.65-4.65h0c.23-.23.45-.34.79-.34h5.1s.11,0,.23.11v.23l-7.6,7.6,7.6,7.6v.11h-.23l.01-.01Z" fill="#fff"/></g></svg>