<?xml version="1.0" encoding="UTF-8"?><svg id="Layer_2" xmlns="http://www.w3.org/2000/svg" viewBox="0 0 131.06 16.43"><g id="svg3069"><path id="path3129" d="M0,.23v15.99h3.51v-6.12h7.6v-3.17H3.51v-3.4h8.62V.36H0" fill="#fff"/><path id="path3131" d="M21.99,9.52l-2.15-5.22-2.15,5.22h4.31-.01ZM18.36.11h3.29l6.8,16.1h-3.63l-1.47-3.63h-6.69l-1.47,3.63h-3.63L18.36.11" fill="#fff"/><path id="path3133" d="M30.04.23h3.29l7.48,9.86V.23h3.51v15.99h-2.95l-7.71-10.09v10.09h-3.51V.23" fill="#fff"/><path id="path3135" d="M46.59,13.83l2.04-2.49c1.47,1.13,2.95,1.93,4.76,1.93s2.27-.57,2.27-1.47h0c0-.91-.57-1.36-3.17-2.04-3.17-.79-5.33-1.7-5.33-4.88h0c0-2.95,2.38-4.88,5.56-4.88s4.31.68,5.9,2.04l-1.81,2.61c-1.36-1.02-2.83-1.59-4.19-1.59s-2.04.57-2.04,1.36h0c0,1.13.68,1.47,3.4,2.15,3.29.79,5.1,2.04,5.1,4.76h0c0,3.17-2.38,4.99-5.9,4.99s-4.88-.79-6.8-2.61" fill="#fff"/><path id="path3137" d="M62.01.23h3.51v6.35h6.46V.23h3.51v15.99h-3.51v-6.35h-6.46v6.35h-3.51V.23" fill="#fff"/><path id="path3139" d="M87.97,9.52l-2.15-5.22-2.15,5.22h4.31-.01ZM84.23.11h3.29l6.8,16.1h-3.63l-1.47-3.63h-6.69l-1.47,3.63h-3.63L84.23.11" fill="#fff"/><path id="path3141" d="M92.73.23h3.74l3.29,10.77L103.39.12h3.06l3.63,10.88L113.37.23h3.63l-5.44,16.1h-3.06l-3.63-10.43-3.63,10.43h-3.06L92.74.23" fill="#fff"/><path id="path3143" d="M118.92.23h12.02v3.17h-8.5v3.29h7.48v3.17h-7.48v3.4h8.62v3.17h-12.13V.44" fill="#fff"/></g></svg>