<svg width="18" height="14" viewBox="0 0 18 14" fill="none" xmlns="http://www.w3.org/2000/svg">
<path d="M18 1.44045V13.7448C17.9348 13.8387 17.8531 13.9481 17.7682 13.9826C17.6542 14.0289 17.5222 13.9742 17.4142 13.9166C16.5529 13.4584 15.6548 13.1654 14.703 12.9752C12.8921 12.6138 11.0581 12.6869 9.27233 13.1541C9.08932 13.2022 8.94027 13.2105 8.75671 13.1624C6.08438 12.4599 3.06466 12.64 0.564384 13.9297C0.432877 13.9974 0.308493 14.0271 0.181918 13.9511C0.0805479 13.8904 0 13.7609 0 13.5903V1.55575C0 1.32872 0.158904 1.16349 0.349589 1.1629L1.51781 1.15815L1.52767 0.713588C1.5326 0.490715 1.66795 0.372443 1.85863 0.32252C4.23452 -0.297959 7.17973 -0.148189 8.99562 1.88976C10.1074 0.678522 11.486 0.172154 13.0077 0.0271383C14.0838 -0.0542847 15.1315 0.0491285 16.1704 0.335595C16.3392 0.381952 16.4586 0.51211 16.4614 0.708239L16.469 1.1629L17.5786 1.16171C17.7836 1.16171 17.9123 1.25502 18 1.44045ZM7.20822 11.3271C7.73096 11.5125 8.18521 11.7437 8.64986 12.0486L8.63945 2.63208C8.12493 2.0015 7.49644 1.54981 6.78192 1.24373C6.16603 0.995894 5.55562 0.857415 4.89918 0.80036C4.00055 0.733201 3.11123 0.812246 2.21479 1.02561V10.9812C3.15452 10.8623 4.0663 10.8178 4.99836 10.8825C5.75671 10.9479 6.46904 11.0727 7.20822 11.3271ZM10.8712 11.298C11.5545 11.0721 12.2044 10.9539 12.9047 10.8873C13.8597 10.8077 14.7912 10.8558 15.7704 10.9818V1.02858C14.9052 0.814624 14.0186 0.737955 13.1304 0.796794C12.446 0.856821 11.8071 0.99946 11.1699 1.26512C10.4734 1.57239 9.85863 2.0116 9.34849 2.63149V12.0433C9.8411 11.7259 10.3216 11.487 10.8718 11.2986L10.8712 11.298ZM1.94082 11.7859C1.71836 11.8204 1.53151 11.6415 1.53151 11.4038L1.53041 1.92602L0.697534 1.9278V13.0257C2.71123 12.1396 4.81644 11.8305 6.96877 12.07C6.32658 11.8073 5.65808 11.7093 4.96932 11.6296C3.95233 11.5625 2.96548 11.6278 1.94027 11.7859H1.94082ZM11.011 12.0694C13.2027 11.8269 15.2986 12.1485 17.2981 13.0245L17.3123 1.9284L16.4795 1.92721V11.3806C16.4795 11.6528 16.2866 11.8156 16.0499 11.7806C14.4088 11.5363 12.5649 11.4697 11.011 12.07V12.0694Z" fill="white"/>
</svg>
